<mxfile host="Electron" modified="2023-11-01T11:18:05.325Z" agent="Mozilla/5.0 (X11; Linux x86_64) AppleWebKit/537.36 (KHTML, like Gecko) draw.io/22.0.3 Chrome/114.0.5735.289 Electron/25.8.4 Safari/537.36" etag="evyurn2TCIXpQBI-a2QN" version="22.0.3" type="device">
  <diagram name="Page-1" id="-atB4YeSo-XXYcGvpV7V">
    <mxGraphModel dx="982" dy="2043" grid="1" gridSize="10" guides="1" tooltips="1" connect="1" arrows="1" fold="1" page="0" pageScale="1" pageWidth="850" pageHeight="1100" math="0" shadow="0">
      <root>
        <mxCell id="0" />
        <mxCell id="1" parent="0" />
        <mxCell id="ewAF8vIRX94RD0DOYJa0-23" value="" style="edgeStyle=orthogonalEdgeStyle;rounded=0;orthogonalLoop=1;jettySize=auto;html=1;" parent="1" source="9xyGyppog6JKoIw5_jVx-1" target="9xyGyppog6JKoIw5_jVx-41" edge="1">
          <mxGeometry relative="1" as="geometry" />
        </mxCell>
        <mxCell id="9xyGyppog6JKoIw5_jVx-1" value="start" style="strokeWidth=2;html=1;shape=mxgraph.flowchart.start_1;whiteSpace=wrap;" parent="1" vertex="1">
          <mxGeometry x="800" y="-1090" width="100" height="60" as="geometry" />
        </mxCell>
        <mxCell id="ewAF8vIRX94RD0DOYJa0-46" style="edgeStyle=orthogonalEdgeStyle;rounded=0;orthogonalLoop=1;jettySize=auto;html=1;entryX=0.5;entryY=0;entryDx=0;entryDy=0;" parent="1" source="9xyGyppog6JKoIw5_jVx-7" target="ewAF8vIRX94RD0DOYJa0-10" edge="1">
          <mxGeometry relative="1" as="geometry">
            <Array as="points">
              <mxPoint x="850" y="-430" />
              <mxPoint x="1030" y="-430" />
            </Array>
          </mxGeometry>
        </mxCell>
        <mxCell id="9xyGyppog6JKoIw5_jVx-7" value="jam film 1" style="shape=parallelogram;perimeter=parallelogramPerimeter;whiteSpace=wrap;html=1;fixedSize=1;" parent="1" vertex="1">
          <mxGeometry x="775" y="-560" width="150" height="70" as="geometry" />
        </mxCell>
        <mxCell id="ewAF8vIRX94RD0DOYJa0-28" value="" style="edgeStyle=orthogonalEdgeStyle;rounded=0;orthogonalLoop=1;jettySize=auto;html=1;" parent="1" source="9xyGyppog6JKoIw5_jVx-20" target="9xyGyppog6JKoIw5_jVx-21" edge="1">
          <mxGeometry relative="1" as="geometry" />
        </mxCell>
        <mxCell id="9xyGyppog6JKoIw5_jVx-20" value="memilih film" style="shape=parallelogram;perimeter=parallelogramPerimeter;whiteSpace=wrap;html=1;fixedSize=1;" parent="1" vertex="1">
          <mxGeometry x="790" y="-870" width="120" height="60" as="geometry" />
        </mxCell>
        <mxCell id="9xyGyppog6JKoIw5_jVx-25" value="" style="edgeStyle=orthogonalEdgeStyle;rounded=0;orthogonalLoop=1;jettySize=auto;html=1;entryX=0;entryY=0.5;entryDx=0;entryDy=0;" parent="1" source="9xyGyppog6JKoIw5_jVx-21" target="9xyGyppog6JKoIw5_jVx-22" edge="1">
          <mxGeometry relative="1" as="geometry" />
        </mxCell>
        <mxCell id="ewAF8vIRX94RD0DOYJa0-39" value="Tidak" style="edgeLabel;html=1;align=center;verticalAlign=middle;resizable=0;points=[];" parent="9xyGyppog6JKoIw5_jVx-25" vertex="1" connectable="0">
          <mxGeometry x="0.18" relative="1" as="geometry">
            <mxPoint as="offset" />
          </mxGeometry>
        </mxCell>
        <mxCell id="ewAF8vIRX94RD0DOYJa0-29" value="" style="edgeStyle=orthogonalEdgeStyle;rounded=0;orthogonalLoop=1;jettySize=auto;html=1;" parent="1" source="9xyGyppog6JKoIw5_jVx-21" target="9xyGyppog6JKoIw5_jVx-7" edge="1">
          <mxGeometry relative="1" as="geometry" />
        </mxCell>
        <mxCell id="ewAF8vIRX94RD0DOYJa0-32" value="Terpilih" style="edgeLabel;html=1;align=center;verticalAlign=middle;resizable=0;points=[];" parent="ewAF8vIRX94RD0DOYJa0-29" vertex="1" connectable="0">
          <mxGeometry x="-0.0889" y="4" relative="1" as="geometry">
            <mxPoint as="offset" />
          </mxGeometry>
        </mxCell>
        <mxCell id="9xyGyppog6JKoIw5_jVx-21" value="film 1" style="rhombus;whiteSpace=wrap;html=1;" parent="1" vertex="1">
          <mxGeometry x="810" y="-730" width="80" height="80" as="geometry" />
        </mxCell>
        <mxCell id="ewAF8vIRX94RD0DOYJa0-30" value="" style="edgeStyle=orthogonalEdgeStyle;rounded=0;orthogonalLoop=1;jettySize=auto;html=1;" parent="1" source="9xyGyppog6JKoIw5_jVx-22" target="9xyGyppog6JKoIw5_jVx-30" edge="1">
          <mxGeometry relative="1" as="geometry" />
        </mxCell>
        <mxCell id="ewAF8vIRX94RD0DOYJa0-33" value="Terpilih" style="edgeLabel;html=1;align=center;verticalAlign=middle;resizable=0;points=[];" parent="ewAF8vIRX94RD0DOYJa0-30" vertex="1" connectable="0">
          <mxGeometry x="-0.0889" y="3" relative="1" as="geometry">
            <mxPoint as="offset" />
          </mxGeometry>
        </mxCell>
        <mxCell id="ewAF8vIRX94RD0DOYJa0-37" style="edgeStyle=orthogonalEdgeStyle;rounded=0;orthogonalLoop=1;jettySize=auto;html=1;entryX=0;entryY=0.5;entryDx=0;entryDy=0;" parent="1" source="9xyGyppog6JKoIw5_jVx-22" target="9xyGyppog6JKoIw5_jVx-23" edge="1">
          <mxGeometry relative="1" as="geometry" />
        </mxCell>
        <mxCell id="ewAF8vIRX94RD0DOYJa0-38" value="Tidak" style="edgeLabel;html=1;align=center;verticalAlign=middle;resizable=0;points=[];" parent="ewAF8vIRX94RD0DOYJa0-37" vertex="1" connectable="0">
          <mxGeometry x="-0.1077" y="-4" relative="1" as="geometry">
            <mxPoint as="offset" />
          </mxGeometry>
        </mxCell>
        <mxCell id="9xyGyppog6JKoIw5_jVx-22" value="film 2" style="rhombus;whiteSpace=wrap;html=1;" parent="1" vertex="1">
          <mxGeometry x="990" y="-730" width="80" height="80" as="geometry" />
        </mxCell>
        <mxCell id="ewAF8vIRX94RD0DOYJa0-21" style="edgeStyle=orthogonalEdgeStyle;rounded=0;orthogonalLoop=1;jettySize=auto;html=1;entryX=0;entryY=0.5;entryDx=0;entryDy=0;" parent="1" source="9xyGyppog6JKoIw5_jVx-23" target="ewAF8vIRX94RD0DOYJa0-20" edge="1">
          <mxGeometry relative="1" as="geometry" />
        </mxCell>
        <mxCell id="ewAF8vIRX94RD0DOYJa0-35" value="tTidak" style="edgeLabel;html=1;align=center;verticalAlign=middle;resizable=0;points=[];" parent="ewAF8vIRX94RD0DOYJa0-21" vertex="1" connectable="0">
          <mxGeometry x="-0.1778" relative="1" as="geometry">
            <mxPoint as="offset" />
          </mxGeometry>
        </mxCell>
        <mxCell id="ewAF8vIRX94RD0DOYJa0-31" value="" style="edgeStyle=orthogonalEdgeStyle;rounded=0;orthogonalLoop=1;jettySize=auto;html=1;" parent="1" source="9xyGyppog6JKoIw5_jVx-23" target="9xyGyppog6JKoIw5_jVx-31" edge="1">
          <mxGeometry relative="1" as="geometry" />
        </mxCell>
        <mxCell id="ewAF8vIRX94RD0DOYJa0-34" value="Terpilih" style="edgeLabel;html=1;align=center;verticalAlign=middle;resizable=0;points=[];" parent="ewAF8vIRX94RD0DOYJa0-31" vertex="1" connectable="0">
          <mxGeometry x="-0.2222" y="5" relative="1" as="geometry">
            <mxPoint as="offset" />
          </mxGeometry>
        </mxCell>
        <mxCell id="9xyGyppog6JKoIw5_jVx-23" value="film 3" style="rhombus;whiteSpace=wrap;html=1;" parent="1" vertex="1">
          <mxGeometry x="1200" y="-730" width="80" height="80" as="geometry" />
        </mxCell>
        <mxCell id="ewAF8vIRX94RD0DOYJa0-44" value="" style="edgeStyle=orthogonalEdgeStyle;rounded=0;orthogonalLoop=1;jettySize=auto;html=1;" parent="1" source="9xyGyppog6JKoIw5_jVx-30" target="ewAF8vIRX94RD0DOYJa0-10" edge="1">
          <mxGeometry relative="1" as="geometry" />
        </mxCell>
        <mxCell id="9xyGyppog6JKoIw5_jVx-30" value="jam film 2" style="shape=parallelogram;perimeter=parallelogramPerimeter;whiteSpace=wrap;html=1;fixedSize=1;" parent="1" vertex="1">
          <mxGeometry x="955" y="-560" width="150" height="70" as="geometry" />
        </mxCell>
        <mxCell id="ewAF8vIRX94RD0DOYJa0-47" style="edgeStyle=orthogonalEdgeStyle;rounded=0;orthogonalLoop=1;jettySize=auto;html=1;entryX=0.5;entryY=0;entryDx=0;entryDy=0;" parent="1" source="9xyGyppog6JKoIw5_jVx-31" target="ewAF8vIRX94RD0DOYJa0-10" edge="1">
          <mxGeometry relative="1" as="geometry">
            <Array as="points">
              <mxPoint x="1240" y="-430" />
              <mxPoint x="1030" y="-430" />
            </Array>
          </mxGeometry>
        </mxCell>
        <mxCell id="9xyGyppog6JKoIw5_jVx-31" value="jam film 3" style="shape=parallelogram;perimeter=parallelogramPerimeter;whiteSpace=wrap;html=1;fixedSize=1;" parent="1" vertex="1">
          <mxGeometry x="1165" y="-560" width="150" height="70" as="geometry" />
        </mxCell>
        <mxCell id="ewAF8vIRX94RD0DOYJa0-24" value="" style="edgeStyle=orthogonalEdgeStyle;rounded=0;orthogonalLoop=1;jettySize=auto;html=1;" parent="1" source="9xyGyppog6JKoIw5_jVx-41" target="9xyGyppog6JKoIw5_jVx-20" edge="1">
          <mxGeometry relative="1" as="geometry" />
        </mxCell>
        <mxCell id="9xyGyppog6JKoIw5_jVx-41" value="menampilkan list film" style="shape=parallelogram;perimeter=parallelogramPerimeter;whiteSpace=wrap;html=1;fixedSize=1;" parent="1" vertex="1">
          <mxGeometry x="780" y="-980" width="140" height="60" as="geometry" />
        </mxCell>
        <mxCell id="ewAF8vIRX94RD0DOYJa0-49" value="" style="edgeStyle=orthogonalEdgeStyle;rounded=0;orthogonalLoop=1;jettySize=auto;html=1;" parent="1" source="9xyGyppog6JKoIw5_jVx-46" target="9xyGyppog6JKoIw5_jVx-48" edge="1">
          <mxGeometry relative="1" as="geometry" />
        </mxCell>
        <mxCell id="9xyGyppog6JKoIw5_jVx-46" value="memilih &lt;br&gt;jam tayang" style="shape=parallelogram;perimeter=parallelogramPerimeter;whiteSpace=wrap;html=1;fixedSize=1;" parent="1" vertex="1">
          <mxGeometry x="970" y="-290" width="120" height="60" as="geometry" />
        </mxCell>
        <mxCell id="ewAF8vIRX94RD0DOYJa0-50" value="" style="edgeStyle=orthogonalEdgeStyle;rounded=0;orthogonalLoop=1;jettySize=auto;html=1;" parent="1" source="9xyGyppog6JKoIw5_jVx-48" target="u8VuRlIs01szIdF88jeU-7" edge="1">
          <mxGeometry relative="1" as="geometry" />
        </mxCell>
        <mxCell id="9xyGyppog6JKoIw5_jVx-48" value="memilih nomor kursi" style="shape=parallelogram;perimeter=parallelogramPerimeter;whiteSpace=wrap;html=1;fixedSize=1;" parent="1" vertex="1">
          <mxGeometry x="960" y="-180" width="140" height="70" as="geometry" />
        </mxCell>
        <mxCell id="ewAF8vIRX94RD0DOYJa0-54" value="" style="edgeStyle=orthogonalEdgeStyle;rounded=0;orthogonalLoop=1;jettySize=auto;html=1;" parent="1" source="u8VuRlIs01szIdF88jeU-7" target="u8VuRlIs01szIdF88jeU-14" edge="1">
          <mxGeometry relative="1" as="geometry" />
        </mxCell>
        <mxCell id="u8VuRlIs01szIdF88jeU-7" value="apakah pilihan sesuai?(y/t)" style="rhombus;whiteSpace=wrap;html=1;" parent="1" vertex="1">
          <mxGeometry x="975" y="-70" width="110" height="110" as="geometry" />
        </mxCell>
        <mxCell id="u8VuRlIs01szIdF88jeU-20" value="" style="edgeStyle=orthogonalEdgeStyle;rounded=0;orthogonalLoop=1;jettySize=auto;html=1;" parent="1" source="u8VuRlIs01szIdF88jeU-14" target="u8VuRlIs01szIdF88jeU-15" edge="1">
          <mxGeometry relative="1" as="geometry" />
        </mxCell>
        <mxCell id="u8VuRlIs01szIdF88jeU-14" value="menampilkan harga&lt;br&gt;&amp;nbsp;kursi" style="shape=parallelogram;perimeter=parallelogramPerimeter;whiteSpace=wrap;html=1;fixedSize=1;" parent="1" vertex="1">
          <mxGeometry x="960" y="90" width="140" height="60" as="geometry" />
        </mxCell>
        <mxCell id="ewAF8vIRX94RD0DOYJa0-2" value="" style="edgeStyle=orthogonalEdgeStyle;rounded=0;orthogonalLoop=1;jettySize=auto;html=1;" parent="1" source="u8VuRlIs01szIdF88jeU-15" target="ewAF8vIRX94RD0DOYJa0-1" edge="1">
          <mxGeometry relative="1" as="geometry" />
        </mxCell>
        <mxCell id="u8VuRlIs01szIdF88jeU-15" value="masukan jumlah kursi&amp;nbsp;" style="shape=parallelogram;perimeter=parallelogramPerimeter;whiteSpace=wrap;html=1;fixedSize=1;" parent="1" vertex="1">
          <mxGeometry x="960" y="190" width="140" height="60" as="geometry" />
        </mxCell>
        <mxCell id="ewAF8vIRX94RD0DOYJa0-4" value="" style="edgeStyle=orthogonalEdgeStyle;rounded=0;orthogonalLoop=1;jettySize=auto;html=1;" parent="1" source="u8VuRlIs01szIdF88jeU-16" target="u8VuRlIs01szIdF88jeU-17" edge="1">
          <mxGeometry relative="1" as="geometry" />
        </mxCell>
        <mxCell id="u8VuRlIs01szIdF88jeU-16" value="menampilkan total&amp;nbsp;&lt;br&gt;harga" style="shape=parallelogram;perimeter=parallelogramPerimeter;whiteSpace=wrap;html=1;fixedSize=1;" parent="1" vertex="1">
          <mxGeometry x="970" y="400" width="120" height="60" as="geometry" />
        </mxCell>
        <mxCell id="ewAF8vIRX94RD0DOYJa0-6" value="" style="edgeStyle=orthogonalEdgeStyle;rounded=0;orthogonalLoop=1;jettySize=auto;html=1;" parent="1" source="u8VuRlIs01szIdF88jeU-17" target="ewAF8vIRX94RD0DOYJa0-5" edge="1">
          <mxGeometry relative="1" as="geometry" />
        </mxCell>
        <mxCell id="u8VuRlIs01szIdF88jeU-17" value="masukan uang&amp;nbsp;&lt;br&gt;yang dibayarkan" style="shape=parallelogram;perimeter=parallelogramPerimeter;whiteSpace=wrap;html=1;fixedSize=1;" parent="1" vertex="1">
          <mxGeometry x="970" y="510" width="120" height="60" as="geometry" />
        </mxCell>
        <mxCell id="u8VuRlIs01szIdF88jeU-26" value="" style="edgeStyle=orthogonalEdgeStyle;rounded=0;orthogonalLoop=1;jettySize=auto;html=1;" parent="1" source="u8VuRlIs01szIdF88jeU-23" target="u8VuRlIs01szIdF88jeU-25" edge="1">
          <mxGeometry relative="1" as="geometry" />
        </mxCell>
        <mxCell id="u8VuRlIs01szIdF88jeU-23" value="menmpilkan &lt;br&gt;ticket" style="shape=parallelogram;perimeter=parallelogramPerimeter;whiteSpace=wrap;html=1;fixedSize=1;" parent="1" vertex="1">
          <mxGeometry x="970" y="720" width="120" height="60" as="geometry" />
        </mxCell>
        <mxCell id="u8VuRlIs01szIdF88jeU-25" value="end" style="strokeWidth=2;html=1;shape=mxgraph.flowchart.start_1;whiteSpace=wrap;" parent="1" vertex="1">
          <mxGeometry x="980" y="820" width="100" height="60" as="geometry" />
        </mxCell>
        <mxCell id="ewAF8vIRX94RD0DOYJa0-3" value="" style="edgeStyle=orthogonalEdgeStyle;rounded=0;orthogonalLoop=1;jettySize=auto;html=1;" parent="1" source="ewAF8vIRX94RD0DOYJa0-1" target="u8VuRlIs01szIdF88jeU-16" edge="1">
          <mxGeometry relative="1" as="geometry" />
        </mxCell>
        <mxCell id="ewAF8vIRX94RD0DOYJa0-1" value="mengalikan harga tiket dengan jumlah kursi yang dipesan" style="rounded=0;whiteSpace=wrap;html=1;" parent="1" vertex="1">
          <mxGeometry x="970" y="300" width="120" height="60" as="geometry" />
        </mxCell>
        <mxCell id="ewAF8vIRX94RD0DOYJa0-7" value="" style="edgeStyle=orthogonalEdgeStyle;rounded=0;orthogonalLoop=1;jettySize=auto;html=1;" parent="1" source="ewAF8vIRX94RD0DOYJa0-5" target="u8VuRlIs01szIdF88jeU-23" edge="1">
          <mxGeometry relative="1" as="geometry" />
        </mxCell>
        <mxCell id="ewAF8vIRX94RD0DOYJa0-5" value="mengurangkan jumlah yang di bayarkan dengan hasil perkalian" style="rounded=0;whiteSpace=wrap;html=1;" parent="1" vertex="1">
          <mxGeometry x="970" y="620" width="120" height="60" as="geometry" />
        </mxCell>
        <mxCell id="ewAF8vIRX94RD0DOYJa0-48" value="" style="edgeStyle=orthogonalEdgeStyle;rounded=0;orthogonalLoop=1;jettySize=auto;html=1;" parent="1" source="ewAF8vIRX94RD0DOYJa0-10" target="9xyGyppog6JKoIw5_jVx-46" edge="1">
          <mxGeometry relative="1" as="geometry" />
        </mxCell>
        <mxCell id="ewAF8vIRX94RD0DOYJa0-10" value="menampilkan jam tayang" style="shape=parallelogram;perimeter=parallelogramPerimeter;whiteSpace=wrap;html=1;fixedSize=1;" parent="1" vertex="1">
          <mxGeometry x="970" y="-390" width="120" height="60" as="geometry" />
        </mxCell>
        <mxCell id="ewAF8vIRX94RD0DOYJa0-42" style="edgeStyle=orthogonalEdgeStyle;rounded=0;orthogonalLoop=1;jettySize=auto;html=1;entryX=1;entryY=0.5;entryDx=0;entryDy=0;" parent="1" source="ewAF8vIRX94RD0DOYJa0-20" target="ewAF8vIRX94RD0DOYJa0-41" edge="1">
          <mxGeometry relative="1" as="geometry">
            <Array as="points">
              <mxPoint x="1465" y="-950" />
            </Array>
          </mxGeometry>
        </mxCell>
        <mxCell id="ewAF8vIRX94RD0DOYJa0-20" value="memasukan&amp;nbsp;&lt;br&gt;film selain yang ada&amp;nbsp;" style="rhombus;whiteSpace=wrap;html=1;" parent="1" vertex="1">
          <mxGeometry x="1410" y="-745" width="110" height="110" as="geometry" />
        </mxCell>
        <mxCell id="ewAF8vIRX94RD0DOYJa0-43" style="edgeStyle=orthogonalEdgeStyle;rounded=0;orthogonalLoop=1;jettySize=auto;html=1;entryX=1;entryY=0.5;entryDx=0;entryDy=0;" parent="1" source="ewAF8vIRX94RD0DOYJa0-41" target="9xyGyppog6JKoIw5_jVx-41" edge="1">
          <mxGeometry relative="1" as="geometry" />
        </mxCell>
        <mxCell id="ewAF8vIRX94RD0DOYJa0-41" value="menampilkan peringatan&amp;nbsp;" style="shape=parallelogram;perimeter=parallelogramPerimeter;whiteSpace=wrap;html=1;fixedSize=1;" parent="1" vertex="1">
          <mxGeometry x="1230" y="-980" width="120" height="60" as="geometry" />
        </mxCell>
        <mxCell id="ewAF8vIRX94RD0DOYJa0-52" style="edgeStyle=orthogonalEdgeStyle;rounded=0;orthogonalLoop=1;jettySize=auto;html=1;entryX=0;entryY=0.25;entryDx=0;entryDy=0;" parent="1" source="u8VuRlIs01szIdF88jeU-7" target="9xyGyppog6JKoIw5_jVx-41" edge="1">
          <mxGeometry relative="1" as="geometry">
            <Array as="points">
              <mxPoint x="630" y="-15" />
              <mxPoint x="630" y="-962" />
            </Array>
          </mxGeometry>
        </mxCell>
        <mxCell id="ewAF8vIRX94RD0DOYJa0-53" value="Tidak" style="edgeLabel;html=1;align=center;verticalAlign=middle;resizable=0;points=[];" parent="ewAF8vIRX94RD0DOYJa0-52" vertex="1" connectable="0">
          <mxGeometry x="-0.7775" y="-3" relative="1" as="geometry">
            <mxPoint as="offset" />
          </mxGeometry>
        </mxCell>
      </root>
    </mxGraphModel>
  </diagram>
</mxfile>
